<svg height="24" viewBox="0 0 24 24" width="24" xmlns="http://www.w3.org/2000/svg"><path d="m2.74694234 15c.37969576 0 .69349096.2821539.74315338.6482294l.00684662.1017706v3.5023354l.0064536.1278052c.059745.5882988.5274424 1.0559962 1.11574116 1.1157412l.12780524.0064536h3.5l.10177055.0068466c.36607556.0496624.64822945.3634576.64822945.7431534 0 .3796957-.28215389.6934909-.64822945.7431534l-.10177055.0068466h-3.5l-.16752234-.0050188c-1.38314215-.0831139-2.49066279-1.1885545-2.57705141-2.5708113l-.00542625-.1741699v-3.5023354l.00684661-.1017706c.04966242-.3660755.36345762-.6482294.74315339-.6482294zm18.49999996 0c.3796958 0 .693491.2821539.7431534.6482294l.0068466.1017706v3.5023354c0 1.4625318-1.1417046 2.6584043-2.5824776 2.7449812l-.1675224.0050188h-3.5c-.4142135 0-.75-.3357865-.75-.75 0-.3796958.2821539-.693491.6482295-.7431534l.1017705-.0068466h3.5c.6472087 0 1.1795339-.4918747 1.2435464-1.1221948l.0064536-.1278052v-3.5023354c0-.4142136.3357865-.75.75-.75zm-8.9919702.5c.4142136 0 .75.3357864.75.75 0 .3796958-.2821539.693491-.6482295.7431534l-.1017705.0068466h-4.5049721c-.41421356 0-.75-.3357864-.75-.75 0-.3796958.28215388-.693491.64822944-.7431534l.10177056-.0068466zm3.9950279-4.25c.4142136 0 .75.3357864.75.75 0 .3796958-.2821539.693491-.6482294.7431534l-.1017706.0068466h-8.5c-.41421356 0-.75-.3357864-.75-.75 0-.3796958.28215388-.693491.64822944-.7431534l.10177056-.0068466zm-8.00305766-9.25c.41421356 0 .75.33578644.75.75 0 .37969577-.28215389.69349096-.64822945.74315338l-.10177055.00684662h-3.5c-.6472087 0-1.1795339.49187466-1.2435464 1.12219476l-.0064536.12780524v3.50233538c0 .41421356-.33578644.75-.75.75-.37969577 0-.69349097-.28215388-.74315339-.64822944l-.00684661-.10177056v-3.50233538c0-1.46253184 1.14170459-2.65840428 2.58247766-2.74498121l.16752234-.00501879zm10.99999996 0 .1675224.00501879c1.3831421.08311385 2.4906628 1.18855445 2.5770514 2.57081128l.0054262.17416993v3.50233538l-.0068466.10177056c-.0496624.36607556-.3634576.64822944-.7431534.64822944-.3796957 0-.6934909-.28215388-.7431533-.64822944l-.0068467-.10177056v-3.50233538l-.0064536-.12780524c-.059745-.58829876-.5274424-1.05599616-1.1157411-1.11574115l-.1278053-.00645361h-3.5l-.1017705-.00684662c-.3660756-.04966242-.6482295-.36345761-.6482295-.74315338s.2821539-.69349096.6482295-.74315338l.1017705-.00684662zm-2.9969423 5c.4142136 0 .75.33578644.75.75 0 .37969577-.2821539.69349096-.6482294.74315338l-.1017706.00684662h-8.5c-.41421356 0-.75-.33578644-.75-.75 0-.37969577.28215388-.69349096.64822944-.74315338l.10177056-.00684662z" fill="#212121"/></svg>